<svg width="81" height="17" viewBox="0 0 81 17" fill="none" xmlns="http://www.w3.org/2000/svg">
<path d="M13.3412 12.8H4.41319L2.56519 17H0.0931875L7.70119 0.199999H10.0772L17.7092 17H15.1892L13.3412 12.8ZM12.5012 10.88L8.87719 2.648L5.25319 10.88H12.5012ZM32.7673 14.912V17H18.7273V15.368L29.2873 2.288H18.8953V0.199999H32.4553V1.832L21.9433 14.912H32.7673ZM48.5408 14.912V17H34.5008V15.368L45.0608 2.288H34.6688V0.199999H48.2288V1.832L37.7168 14.912H48.5408ZM57.2342 9.536L54.1622 12.656V17H51.7622V0.199999H54.1622V9.584L63.2822 0.199999H66.0182L58.8422 7.76L66.4742 17H63.6662L57.2342 9.536ZM74.2958 11.192V17H71.9198V11.144L65.2477 0.199999H67.8158L73.1918 9.056L78.5918 0.199999H80.9678L74.2958 11.192Z" fill="currentColor"/>
</svg>